<svg xmlns="http://www.w3.org/2000/svg" viewBox="0 0 512 512">
  <defs>
    <linearGradient id="cat-ear" x1="0" y1="0" x2="1" y2="1">
      <stop offset="0" stop-color="#f4b8c8"/>
      <stop offset="0.58" stop-color="#d97897"/>
      <stop offset="1" stop-color="#a84269"/>
    </linearGradient>
    <linearGradient id="cat-inner-ear" x1="0" y1="0" x2="0.85" y2="1">
      <stop offset="0" stop-color="#ffdce2"/>
      <stop offset="0.62" stop-color="#ed91aa"/>
      <stop offset="1" stop-color="#b84d73"/>
    </linearGradient>
    <linearGradient id="cat-nose" x1="0" y1="0" x2="0" y2="1">
      <stop offset="0" stop-color="#f3a9bc"/>
      <stop offset="0.65" stop-color="#c95a80"/>
      <stop offset="1" stop-color="#923958"/>
    </linearGradient>
  </defs>

  <g stroke="#442d38" stroke-width="7" stroke-linejoin="round" stroke-linecap="round">
    <path fill="url(#cat-ear)" d="M59 148 88 37c3-15 13-20 25-10l108 101c9 8 11 15 6 26l-23 30c-4 8-11 10-20 7l-88-28c-10-4-14-11-11-15z"/>
    <path fill="url(#cat-ear)" d="m453 148-29-111c-3-15-13-20-25-10L291 128c-9 8-11 15-6 26l23 30c4 8 11 10 20 7l88-28c10-4 14-11 11-15z"/>
    <path fill="url(#cat-inner-ear)" stroke-width="5" d="m94 134 17-62 73 67-14 22z"/>
    <path fill="url(#cat-inner-ear)" stroke-width="5" d="m418 134-17-62-73 67 14 22z"/>
    <path fill="none" stroke="#ffdce2" stroke-width="4" opacity="0.65" d="M83 140c17 5 38 10 60 15m-44-38c10 17 26 32 47 45m283-22c-17 5-38 10-60 15m44-38c-10 17-26 32-47 45"/>
    <path fill="#f3b0bd" stroke="none" opacity="0.34" d="M204 316c13-16 31-23 52-23s39 7 52 23c-10 18-29 28-52 28s-42-10-52-28z"/>
    <path fill="url(#cat-nose)" d="m229 286 27 18 27-18-27-22z"/>
    <ellipse cx="249" cy="286" rx="7" ry="4" fill="#ffffff" stroke="none" opacity="0.45"/>
    <path fill="none" d="M256 304v25m0 0c-21 14-37 7-48-3m48 3c21 14 37 7 48-3"/>
    <path fill="none" stroke="#7c3e58" stroke-width="4" opacity="0.65" d="M208 340c14 13 30 19 48 19m48-19c-14 13-30 19-48 19"/>
    <path fill="none" stroke-width="5" opacity="0.9" d="M224 307 112 286m112 37-122 15m172-31 112-21m-112 58 122 15"/>
  </g>
</svg>
